HIERARCHY
ROOT Hips
{
	OFFSET -3.958830 18.904000 13.208200
	CHANNELS 6 Xposition Yposition Zposition Zrotation Yrotation Xrotation 
	JOINT LHipJoint
	{
		OFFSET 0.000000 0.000000 0.000000
		CHANNELS 3 Zrotation Yrotation Xrotation
		JOINT LeftUpLeg
		{
			OFFSET 1.800000 -1.400000 0.085000
			CHANNELS 3 Zrotation Yrotation Xrotation
			JOINT LeftLeg
			{
				OFFSET 2.215000 -6.000000 0.000000
				CHANNELS 3 Zrotation Yrotation Xrotation
				JOINT LeftFoot
				{
					OFFSET 2.500000 -6.900000 0.000000
					CHANNELS 3 Zrotation Yrotation Xrotation
					JOINT LeftToeBase
					{
						OFFSET 0.200000 -0.500000 1.950000
						CHANNELS 3 Zrotation Yrotation Xrotation
						End Site
						{
							OFFSET 0.000000 0.000000 0.000000
						}
					}
				}
			}
		}
	}
	JOINT RHipJoint
	{
		OFFSET 0.000000 0.000000 0.000000
		CHANNELS 3 Zrotation Yrotation Xrotation
		JOINT RightUpLeg
		{
			OFFSET -1.800000 -1.400000 0.085000
			CHANNELS 3 Zrotation Yrotation Xrotation
			JOINT RightLeg
			{
				OFFSET -2.215000 -6.000000 0.000000
				CHANNELS 3 Zrotation Yrotation Xrotation
				JOINT RightFoot
				{
					OFFSET -2.500000 -6.900000 0.000000
					CHANNELS 3 Zrotation Yrotation Xrotation
					JOINT RightToeBase
					{
						OFFSET -0.200000 -0.500000 1.950000
						CHANNELS 3 Zrotation Yrotation Xrotation
						End Site
						{
							OFFSET 0.000000 0.000000 0.000000
						}
					}
				}
			}
		}
	}
	JOINT LowerBack
	{
		OFFSET 0.000000 0.000000 0.000000
		CHANNELS 3 Zrotation Yrotation Xrotation
		JOINT Spine
		{
			OFFSET -0.087000 1.940000 -0.288900
			CHANNELS 3 Zrotation Yrotation Xrotation
			JOINT Spine1
			{
				OFFSET 0.000000 1.950000 0.060000
				CHANNELS 3 Zrotation Yrotation Xrotation
				JOINT Neck
				{
					OFFSET 0.000000 0.000000 0.000000
					CHANNELS 3 Zrotation Yrotation Xrotation
					JOINT Neck1
					{
						OFFSET 0.000000 1.600000 0.340000
						CHANNELS 3 Zrotation Yrotation Xrotation
						JOINT Head
						{
							OFFSET 0.000000 1.667000 -0.240000
							CHANNELS 3 Zrotation Yrotation Xrotation
							End Site
							{
								OFFSET 0.000000 0.000000 0.000000
							}
						}
					}
				}
				JOINT LeftShoulder
				{
					OFFSET 0.000000 0.000000 0.000000
					CHANNELS 3 Zrotation Yrotation Xrotation
					JOINT LeftArm
					{
						OFFSET 2.700000 1.550000 -0.730000
						CHANNELS 3 Zrotation Yrotation Xrotation
						JOINT LeftForeArm
						{
							OFFSET 5.450000 0.000000 0.000000
							CHANNELS 3 Zrotation Yrotation Xrotation
							JOINT LeftHand
							{
								OFFSET 3.450000 0.000000 0.000000
								CHANNELS 3 Zrotation Yrotation Xrotation
								JOINT LeftHandIndex1
								{
									OFFSET 0.750000 0.000000 0.000000
									CHANNELS 3 Zrotation Yrotation Xrotation
									End Site
									{
										OFFSET 0.000000 0.000000 0.000000
									}
								}
							}
						}
					}
				}
				JOINT RightShoulder
				{
					OFFSET 0.000000 0.000000 0.000000
					CHANNELS 3 Zrotation Yrotation Xrotation
					JOINT RightArm
					{
						OFFSET -2.700000 1.550000 -0.730000
						CHANNELS 3 Zrotation Yrotation Xrotation
						JOINT RightForeArm
						{
							OFFSET -5.450000 0.000000 0.000000
							CHANNELS 3 Zrotation Yrotation Xrotation
							JOINT RightHand
							{
								OFFSET -3.450000 0.000000 0.000000
								CHANNELS 3 Zrotation Yrotation Xrotation
								JOINT RightHandIndex1
								{
									OFFSET -0.750000 0.000000 0.000000
									CHANNELS 3 Zrotation Yrotation Xrotation
									End Site
									{
										OFFSET 0.000000 0.000000 0.000000
									}
								}
							}
						}
					}
				}
			}
		}
	}
}
MOTION
Frames: 6
Frame Time: 0.016667
-0.393700 17.254300 -1.310590 -0.001671 3.491683 7.102109 -15.502540 11.269224 5.340123 -9.807438 -10.330604 -46.145663 -2.064879 3.111478 12.250570 -1.550112 2.198511 3.924410 0.470430 -0.136530 0.650630 18.169758 -10.596098 2.460309 -2.677148 -1.729590 9.711831 4.650483 -7.603224 19.328832 -0.878865 -5.595429 2.712506 0.104370 0.196180 0.121860 -2.994364 -0.689324 -8.204310 2.863867 7.798356 19.947934 0.334978 9.621227 3.933012 3.099542 3.763523 -6.534393 5.110658 -5.819676 34.185106 -6.317590 -0.636940 -21.562560 -27.332552 -1.751223 0.781808 -39.103108 11.295283 -10.622670 -50.452579 -28.826572 7.339282 -3.624862 2.725270 1.115010 0.046130 -0.002120 0.085140 21.080954 3.388612 3.877774 49.931077 -0.856843 -11.990661 63.322883 52.897008 23.042000 1.831052 -1.452893 -0.611460 0.520730 0.084130 -0.584240 
-0.391480 17.121220 -1.402590 -0.528875 5.223092 8.019175 -15.455452 11.080043 5.381074 -11.505332 -10.415762 -46.770978 -1.087990 2.576161 7.781925 -1.609077 1.820540 4.079536 0.433180 -0.179630 0.612820 18.239882 -10.570677 2.597530 -1.187974 -2.239879 10.236842 4.945523 -7.470663 17.529203 -0.877755 -5.555090 2.726115 0.084920 0.218230 0.131370 -3.178061 -0.388823 -8.352759 4.513445 7.598514 19.863954 -0.431128 9.620735 2.835538 3.232600 4.156525 -6.603644 5.910853 -6.270150 34.866894 -6.278780 -0.995790 -20.501000 -28.340659 -2.793547 1.137383 -38.159131 10.886933 -9.881137 -48.093128 -27.676158 6.447732 -3.653849 2.719268 1.100250 0.066100 -0.025930 0.071910 21.737033 4.273644 3.510599 49.220543 1.303810 -11.771509 48.750166 49.959234 15.657126 1.766409 -1.379239 -0.615070 0.511680 0.119720 -0.581010 
-0.401810 16.980550 -1.474600 -0.543749 5.859877 9.116161 -15.478798 10.930509 5.474449 -12.696435 -10.734708 -48.353424 -0.219102 2.416238 6.181619 -1.629072 1.718979 4.122914 0.421950 -0.197140 0.576980 18.252243 -10.495049 2.610927 -0.311738 -2.386576 9.913086 5.023221 -7.301607 16.782371 -0.835253 -5.512544 2.736322 0.092580 0.265010 0.143970 -3.161280 -0.296904 -8.386002 4.241493 8.138878 18.986388 0.330642 9.954906 2.231738 2.929031 3.994060 -6.250117 5.677791 -6.114574 34.524081 -5.492160 -1.486890 -18.531550 -29.191000 -3.214876 1.210437 -37.874626 10.119684 -9.180417 -45.400265 -26.115512 5.359057 -3.708099 2.740061 1.049350 0.106380 -0.077780 0.074050 23.254857 5.174134 2.897774 47.125519 3.418245 -10.967403 36.162548 45.165882 9.730351 1.712660 -1.329003 -0.612490 0.499450 0.143970 -0.565260 
-0.411850 16.854720 -1.525260 -0.245905 6.507550 9.875630 -15.543182 10.863991 5.590333 -13.943792 -11.195446 -49.801994 0.509436 2.400477 6.232884 -1.616743 1.684365 4.156336 0.410510 -0.198570 0.529370 18.213855 -10.372946 2.612429 0.287232 -2.483530 9.776707 5.284523 -7.221242 16.311970 -0.801394 -5.492517 2.759759 0.103810 0.316890 0.129400 -3.013635 -0.432784 -8.431087 3.366516 8.765663 18.570858 1.755209 10.382006 1.395465 2.492652 3.390512 -5.910936 4.457468 -5.932734 34.648310 -5.003610 -2.187940 -16.521240 -30.336722 -3.590926 1.112016 -38.047037 9.074636 -8.479933 -41.585293 -23.638452 3.853507 -3.742463 2.720243 0.996890 0.137760 -0.124290 0.101850 25.387296 6.511951 2.612027 44.243372 4.870817 -10.015067 25.379679 39.311603 5.340649 1.683466 -1.266999 -0.618100 0.514030 0.145280 -0.534450 
-0.412130 16.740350 -1.558040 -0.070424 7.121028 10.217485 -15.595345 10.839962 5.693234 -15.020943 -11.571747 -50.793274 1.088466 2.386261 6.441680 -1.597059 1.658957 4.167539 0.384030 -0.234170 0.493990 18.168491 -10.282315 2.638658 0.590994 -2.551400 9.993199 5.782801 -7.293012 15.906069 -0.794865 -5.504456 2.757404 0.077810 0.331970 0.136070 -2.878956 -0.568311 -8.527556 2.957828 9.267876 18.803136 2.733352 10.881327 0.332285 2.289388 2.964777 -6.106117 3.514126 -5.818279 35.756652 -4.859850 -2.610870 -15.278490 -31.172414 -4.326134 1.201531 -38.854845 8.243603 -7.989636 -36.969636 -20.773606 2.233096 -3.762656 2.684359 0.985250 0.142220 -0.138910 0.105730 26.724529 8.076394 2.895381 42.435539 5.734357 -9.121226 16.953677 33.488193 2.553803 1.688596 -1.191402 -0.612510 0.498450 0.159830 -0.520730 
-0.392990 16.643880 -1.565220 -0.039539 7.906903 10.239164 -15.605009 10.793749 5.828704 -15.858620 -12.056569 -51.730466 1.264312 2.433174 7.568627 -1.549912 1.668500 4.168125 0.359310 -0.262000 0.458810 18.154444 -10.230494 2.686774 0.644085 -2.592285 10.542342 6.479249 -7.463810 15.610839 -0.800429 -5.557842 2.756608 0.047860 0.343470 0.125790 -2.861759 -0.621138 -8.691846 3.661522 9.347971 19.391073 2.800129 11.220501 -0.800214 2.131715 2.245950 -6.493418 1.972971 -5.601897 37.541742 -4.412260 -3.302820 -13.935750 -32.167060 -5.128029 1.203169 -39.303970 7.448422 -7.252007 -32.472291 -16.967750 0.708956 -3.766835 2.627522 0.968230 0.136760 -0.151450 0.113630 27.995533 9.688904 3.462349 40.898785 6.101131 -7.963216 10.672800 27.151898 0.889435 1.730188 -1.119402 -0.601200 0.493900 0.164390 -0.499450 
